# xmcd
#
# Track frame offsets:
#	150
#	17312
#	55347
#
# Disc length: 1060 seconds
#
# Revision: 0
# Processed by: cddbd v1.5.1PL0 Copyright (c) Steve Scherf et al.
# Submitted via: EasyCDDAExtractor 4.6.9.1
#
DISCID=18042203
DTITLE=Mary J. Blige - Deep Inside
DYEAR=2001
DGENRE=Dance
TTITLE0=Deep Inside (Radio Edit)
TTITLE1=Deep Inside (Hex Hector Remix)
TTITLE2=Let No Man Put Asunder (Maurice Joshua Remix)
EXTD=
EXTT0=
EXTT1=
EXTT2=
PLAYORDER=
